<svg width="40" height="40" viewBox="0 0 40 40" fill="none" xmlns="http://www.w3.org/2000/svg">
<path fill-rule="evenodd" clip-rule="evenodd" d="M30.2361 6.16651C32.8694 5.20805 35.7812 6.56587 36.7393 9.19916C37.6977 11.8324 36.3399 14.7442 33.707 15.7023L30.2361 6.16651" fill="#FFDCA1"/>
<path fill-rule="evenodd" clip-rule="evenodd" d="M35.9975 8.56238C36.0146 8.63227 36.0531 8.71998 36.1112 8.80841C36.1102 8.8077 36.1098 8.80734 36.1094 8.80734C36.1037 8.80734 36.1615 8.8783 36.2114 8.9489C36.2613 9.01915 36.3027 9.08975 36.2642 9.08975C36.2549 9.08975 36.241 9.08583 36.2218 9.07691C36.2867 9.14109 36.281 9.15678 36.2496 9.15678C36.2346 9.15678 36.2136 9.15322 36.1915 9.15001C36.1694 9.14644 36.1462 9.14288 36.1266 9.14288C36.0795 9.14288 36.0531 9.16285 36.1112 9.25128C36.0574 9.21562 36.0028 9.18139 35.9476 9.14823C36.312 10.5603 35.6748 12.0397 34.4232 12.7514L34.8404 13.9013C36.517 13.2902 37.3788 11.4374 36.7705 9.76082C36.6001 9.29228 36.3316 8.88864 35.9975 8.56238" fill="#FFE9BF"/>
<path fill-rule="evenodd" clip-rule="evenodd" d="M32.6792 6.59351C32.3676 6.59351 32.0524 6.62916 31.7389 6.70333C31.6879 6.71545 31.745 6.85844 31.8438 7.04457C31.8088 7.05206 31.7739 7.05705 31.7389 7.06525C31.7158 7.0706 31.7168 7.1059 31.7322 7.15796C31.7029 7.18969 31.7536 7.31806 31.8438 7.48779C31.8088 7.49492 31.7739 7.49991 31.7389 7.50811C31.582 7.5452 32.4378 8.8121 32.4378 8.8121C32.8996 8.64415 33.3724 8.56464 33.8377 8.56464C34.5865 8.56464 35.3157 8.77109 35.9476 9.14835C35.9215 9.04744 35.8901 8.94688 35.8538 8.84669C35.7668 8.60564 35.6527 8.38243 35.5186 8.17633C35.689 8.28901 35.8499 8.41809 35.9975 8.5625C35.9764 8.47621 35.9882 8.41702 36.0363 8.41702C36.0556 8.41702 36.0806 8.42629 36.1112 8.44661C35.3499 7.28454 34.0492 6.59351 32.6792 6.59351" fill="#FFC675"/>
<path fill-rule="evenodd" clip-rule="evenodd" d="M35.5185 8.17615C35.6526 8.38225 35.7671 8.60582 35.8537 8.84686C35.8904 8.9467 35.9215 9.04725 35.9475 9.14816C36.0027 9.18132 36.0573 9.21556 36.1111 9.25121C36.053 9.16278 36.0798 9.14281 36.1265 9.14281C36.1461 9.14281 36.1696 9.14638 36.1917 9.14995C36.2135 9.15315 36.2345 9.15672 36.2495 9.15672C36.2812 9.15672 36.2866 9.14103 36.2217 9.07685C36.2413 9.08576 36.2548 9.08969 36.2641 9.08969C36.3026 9.08969 36.2613 9.01908 36.2113 8.94884C36.1618 8.87824 36.1037 8.80764 36.1094 8.80764C36.1097 8.80764 36.1104 8.80764 36.1111 8.80835C36.053 8.71992 36.0145 8.6322 35.9974 8.56232C35.8498 8.4179 35.689 8.28882 35.5185 8.17615" fill="#FFD18B"/>
<path fill-rule="evenodd" clip-rule="evenodd" d="M32.2523 16.2319L17.1187 20.9094L14.1819 12.8406L28.7814 6.69611L32.2523 16.2319Z" fill="#E8F3FF"/>
<path fill-rule="evenodd" clip-rule="evenodd" d="M32.5074 16.1977L17.3752 20.8774L16.8407 19.4101L16.7587 19.1836L31.0673 14.7575L32.3552 15.7762L32.5074 16.1977Z" fill="white"/>
<path fill-rule="evenodd" clip-rule="evenodd" d="M15.7291 14.8563L16.264 16.3239L15.456 16.6167L14.8235 14.8837L14.2929 13.42L28.8902 7.27271L29.5342 9.04843L15.7291 14.8563Z" fill="#B8DAF2"/>
<path fill-rule="evenodd" clip-rule="evenodd" d="M34.2534 17.165V17.165C33.4433 17.4599 32.5472 17.042 32.2523 16.2318L28.7814 6.69604C28.4866 5.88591 28.9045 4.98984 29.7146 4.69496C30.5247 4.40007 31.4208 4.81797 31.7157 5.6281L35.1865 15.1639C35.4814 15.974 35.0635 16.8701 34.2534 17.165" fill="#E8F3FF"/>
<path fill-rule="evenodd" clip-rule="evenodd" d="M34.4968 17.1127C33.6849 17.4094 32.7913 16.9919 32.4947 16.1799L32.3424 15.7585C32.5767 15.7856 32.8184 15.7624 33.0566 15.6765C33.3533 15.5709 33.5954 15.3837 33.7669 15.1495C34.0793 14.7398 34.1766 14.1892 33.9894 13.6743L35.4296 15.1145C35.7263 15.9221 35.3087 16.82 34.4968 17.1127" fill="white"/>
<path fill-rule="evenodd" clip-rule="evenodd" d="M29.461 9.03375L28.8171 7.25802C28.5243 6.45003 28.9419 5.55218 29.7499 5.25944C29.9257 5.19312 30.1089 5.16602 30.2847 5.16602C30.9248 5.16602 31.5217 5.55611 31.752 6.19223L31.838 6.4265L31.9043 6.6137C31.8419 6.60621 31.7834 6.60229 31.721 6.60229C31.5452 6.60229 31.3659 6.63331 31.1901 6.69571C30.3821 6.99238 29.9606 7.89023 30.2573 8.69822L29.461 9.03375Z" fill="#B8DAF2"/>
<path fill-rule="evenodd" clip-rule="evenodd" d="M9.24959 22.1122L16.585 19.4422L14.7162 14.3076L7.3808 16.9772L9.24959 22.1122Z" fill="#E8F3FF"/>
<path fill-rule="evenodd" clip-rule="evenodd" d="M16.8406 19.4099L9.50665 22.0796L9.23744 21.3458L8.87445 20.3466L15.4004 17.9697L15.9353 19.4374L16.7586 19.1835L16.8406 19.4099Z" fill="white"/>
<path fill-rule="evenodd" clip-rule="evenodd" d="M8.93003 18.9934L9.19568 19.7272L8.38733 20.02L7.75513 18.287L7.48984 17.5532L14.8235 14.8835L15.456 16.6165L8.93003 18.9934Z" fill="#B8DAF2"/>
<path fill-rule="evenodd" clip-rule="evenodd" d="M5.31489 22.7135L8.98259 21.3785L7.64759 17.7111L3.97989 19.0458L5.31489 22.7135Z" fill="#E8F3FF"/>
<path fill-rule="evenodd" clip-rule="evenodd" d="M9.23756 21.3458L5.57271 22.6808L4.94016 20.9475L7.79737 19.9056L8.06658 20.6395L8.87457 20.3467L9.23756 21.3458Z" fill="white"/>
<path fill-rule="evenodd" clip-rule="evenodd" d="M4.17805 19.5899L4.09033 19.622L5.42534 23.2904L6.23297 22.998L6.05433 22.5052L5.5726 22.6807L5.55299 22.6268L5.3148 22.7135L4.17805 19.5899Z" fill="#B8DAF2"/>
<path fill-rule="evenodd" clip-rule="evenodd" d="M7.75526 18.287L4.17813 19.59L5.31488 22.7135L5.55307 22.6269L4.94013 20.9478L7.79734 19.9055L7.90395 20.1965L8.38746 20.02L7.75526 18.287Z" fill="#A7D0F2"/>
<path fill-rule="evenodd" clip-rule="evenodd" d="M7.79732 19.9056L4.94046 20.9475L5.55305 22.6266L5.57266 22.6808L6.05403 22.5054L5.53059 21.062L7.90393 20.1962L7.79732 19.9056Z" fill="#B8DAF2"/>
<path fill-rule="evenodd" clip-rule="evenodd" d="M35.1 15.6474C34.8886 15.6474 34.6789 15.5536 34.5384 15.3743C34.2953 15.0644 34.3498 14.6158 34.6597 14.373C36.1519 13.2031 36.7185 11.2223 36.0692 9.44517C35.4213 7.66267 33.7019 6.5113 31.8264 6.57655C31.4263 6.59046 31.1029 6.28167 31.089 5.88837C31.0754 5.49471 31.3835 5.16453 31.7771 5.15098C34.2878 5.05648 36.5502 6.59295 37.4096 8.95667C38.271 11.315 37.5197 13.943 35.5397 15.4955C35.4092 15.5978 35.2541 15.6474 35.1 15.6474" fill="#2D3666"/>
<path fill-rule="evenodd" clip-rule="evenodd" d="M15.0843 13.2343L17.5571 20.0277L31.3261 15.772L28.3677 7.64391L15.0843 13.2343ZM17.1189 21.6222C16.8265 21.6222 16.5537 21.4418 16.4489 21.153L13.5122 13.0841C13.382 12.7268 13.5549 12.3307 13.9055 12.183L28.5053 6.0386C28.685 5.963 28.8875 5.96443 29.0673 6.04252C29.2459 6.12061 29.385 6.26894 29.452 6.45222L32.9222 15.9884C32.9892 16.1713 32.9781 16.3746 32.8908 16.5493C32.8041 16.724 32.6494 16.8556 32.4629 16.9133L17.3296 21.5908C17.2597 21.6122 17.1884 21.6222 17.1189 21.6222V21.6222Z" fill="#2D3666"/>
<path fill-rule="evenodd" clip-rule="evenodd" d="M30.2477 5.31374C30.1514 5.31374 30.054 5.3305 29.9581 5.36508C29.7456 5.44246 29.5755 5.59828 29.4803 5.80367C29.3844 6.0087 29.3744 6.2394 29.4518 6.45227L32.9223 15.9884C33.0824 16.4274 33.5688 16.6542 34.0098 16.4948C34.4488 16.3347 34.6763 15.8472 34.5165 15.4079L31.0453 5.87177C30.9205 5.52804 30.5942 5.31374 30.2477 5.31374M33.7217 17.9724C32.7925 17.9724 31.9182 17.3987 31.5823 16.4762L28.1118 6.94005C27.9039 6.36918 27.9306 5.7516 28.1874 5.20105C28.4438 4.6505 28.8998 4.2326 29.4707 4.02507C30.0419 3.81684 30.6595 3.84394 31.2097 4.10102C31.7602 4.3574 32.1781 4.81346 32.3857 5.38433L35.8565 14.9201C36.2855 16.0982 35.6757 17.4058 34.4976 17.8348H34.4973C34.2416 17.9282 33.9795 17.9724 33.7217 17.9724" fill="#2D3666"/>
<path fill-rule="evenodd" clip-rule="evenodd" d="M8.29481 17.4038L9.67582 21.198L15.6709 19.0158L14.2895 15.2215L8.29481 17.4038ZM9.24971 22.8254C8.95839 22.8254 8.6849 22.6454 8.57971 22.3558L6.71092 17.2212C6.57613 16.8514 6.7669 16.4421 7.13666 16.3076L14.4717 13.6373C14.6493 13.5724 14.8458 13.5809 15.0173 13.6612C15.1888 13.741 15.3214 13.8858 15.386 14.0637L17.2548 19.1984C17.3895 19.5681 17.1988 19.9778 16.8286 20.1123L9.49325 22.7819C9.41302 22.8115 9.33065 22.8254 9.24971 22.8254V22.8254Z" fill="#2D3666"/>
<path fill-rule="evenodd" clip-rule="evenodd" d="M4.89413 19.4722L5.74099 21.7992L8.06834 20.9523L7.22148 18.625L4.89413 19.4722ZM5.31489 23.4269C5.02357 23.4269 4.75008 23.2469 4.64453 22.957L3.30988 19.2896C3.17545 18.9198 3.36622 18.5105 3.73599 18.3761L7.40369 17.0411C7.58126 16.9758 7.77737 16.9844 7.94924 17.0646C8.12075 17.1445 8.2534 17.2892 8.31829 17.4672L9.65294 21.1349C9.78737 21.505 9.59661 21.9143 9.22613 22.0491L5.55843 23.3838C5.4782 23.413 5.39583 23.4269 5.31489 23.4269V23.4269Z" fill="#2D3666"/>
<path fill-rule="evenodd" clip-rule="evenodd" d="M21.5719 23.1685C21.1782 23.1685 20.8587 22.849 20.8587 22.4553V20.1137C20.8587 19.7197 21.1782 19.4006 21.5719 19.4006C21.9655 19.4006 22.285 19.7197 22.285 20.1137V22.4553C22.285 22.849 21.9655 23.1685 21.5719 23.1685" fill="#2D3666"/>
<path fill-rule="evenodd" clip-rule="evenodd" d="M23.1332 24.0166C23.1332 24.8788 22.4343 25.5777 21.5721 25.5777C20.7095 25.5777 20.0107 24.8788 20.0107 24.0166C20.0107 23.1544 20.7095 22.4555 21.5721 22.4555C22.4343 22.4555 23.1332 23.1544 23.1332 24.0166" fill="#78D5DD"/>
<path fill-rule="evenodd" clip-rule="evenodd" d="M21.5719 23.1684C21.1041 23.1684 20.7239 23.5485 20.7239 24.0164C20.7239 24.4838 21.1041 24.8647 21.5719 24.8647C22.0397 24.8647 22.4202 24.4838 22.4202 24.0164C22.4202 23.5485 22.0397 23.1684 21.5719 23.1684M21.5719 26.2909C20.3178 26.2909 19.2977 25.2708 19.2977 24.0163C19.2977 22.7623 20.3178 21.7421 21.5719 21.7421C22.8263 21.7421 23.8465 22.7623 23.8465 24.0163C23.8465 25.2708 22.8263 26.2909 21.5719 26.2909" fill="#2D3666"/>
<path fill-rule="evenodd" clip-rule="evenodd" d="M21.5719 38C21.1782 38 20.8587 37.6805 20.8587 37.2869V25.5778C20.8587 25.1841 21.1782 24.8646 21.5719 24.8646C21.9655 24.8646 22.285 25.1841 22.285 25.5778V37.2869C22.285 37.6805 21.9655 38 21.5719 38" fill="#2D3666"/>
<path fill-rule="evenodd" clip-rule="evenodd" d="M33.281 38C33.0984 38 32.9162 37.9305 32.7768 37.791L21.0677 26.0819C20.7892 25.8035 20.7892 25.352 21.0677 25.0735C21.3461 24.7951 21.7976 24.7951 22.076 25.0735L33.7852 36.7827C34.0636 37.0611 34.0636 37.5126 33.7852 37.791C33.6457 37.9305 33.4635 38 33.281 38" fill="#2D3666"/>
<path fill-rule="evenodd" clip-rule="evenodd" d="M9.86277 38C9.68021 38 9.498 37.9305 9.35858 37.791C9.0801 37.5126 9.0801 37.0611 9.35858 36.7827L21.0677 25.0735C21.3462 24.7951 21.7976 24.7951 22.0761 25.0735C22.3546 25.352 22.3546 25.8035 22.0761 26.0819L10.367 37.791C10.2275 37.9305 10.0453 38 9.86277 38" fill="#2D3666"/>
<path fill-rule="evenodd" clip-rule="evenodd" d="M5.58186 24.1609C5.29089 24.1609 5.01705 23.9808 4.9115 23.6913L3.04306 18.5563C2.90864 18.1862 3.0994 17.7772 3.46952 17.6424C3.83893 17.5083 4.24899 17.6984 4.38377 18.0688L6.25221 23.2035C6.38664 23.574 6.19587 23.983 5.82575 24.1177C5.74517 24.147 5.66316 24.1609 5.58186 24.1609" fill="#2D3666"/>
<path fill-rule="evenodd" clip-rule="evenodd" d="M23.2518 3.39465C23.2418 3.40571 23.2315 3.4164 23.2201 3.42639C23.2315 3.43637 23.2418 3.44671 23.2518 3.45812C23.2618 3.44671 23.2721 3.43637 23.2835 3.42639C23.2721 3.4164 23.2618 3.40571 23.2518 3.39465" fill="#9AE0E6"/>
<path fill-rule="evenodd" clip-rule="evenodd" d="M23.2518 2C23.0977 2 22.9622 2.0977 22.9137 2.2439L22.7026 2.87717L22.0694 3.08826C21.9232 3.13675 21.8255 3.27225 21.8255 3.42629C21.8255 3.58033 21.9232 3.71582 22.0694 3.76468L22.7023 3.97577L22.9137 4.60868C22.9622 4.75488 23.0977 4.85258 23.2518 4.85258C23.4058 4.85258 23.5413 4.75488 23.5898 4.60868L23.8012 3.97577L24.4342 3.76468C24.5803 3.71582 24.678 3.58033 24.678 3.42629C24.678 3.27225 24.5803 3.13675 24.4342 3.08826L23.8009 2.87681L23.5898 2.2439C23.5413 2.0977 23.4058 2 23.2518 2M23.22 3.42629C23.2314 3.41631 23.2418 3.40597 23.2518 3.39456C23.2617 3.40597 23.2721 3.41631 23.2835 3.42629C23.2721 3.43628 23.2617 3.44698 23.2518 3.45803C23.2418 3.44698 23.2314 3.43628 23.22 3.42629" fill="#9AE0E6"/>
<path fill-rule="evenodd" clip-rule="evenodd" d="M9.34541 10.6157L9.32722 10.6706C9.29192 10.7768 9.20777 10.8606 9.10187 10.8959L9.0466 10.9145L9.10187 10.9327C9.20777 10.968 9.29192 11.0521 9.32722 11.1584L9.34541 11.2129L9.36395 11.1584C9.39925 11.0521 9.48304 10.968 9.5893 10.9327L9.64422 10.9145L9.5893 10.8959C9.48304 10.8606 9.39925 10.7768 9.36395 10.6706L9.34541 10.6157" fill="#9AE0E6"/>
<path fill-rule="evenodd" clip-rule="evenodd" d="M9.34557 9.13159C9.19153 9.13159 9.05568 9.22929 9.00719 9.37513L8.70695 10.2758L7.80661 10.5761C7.66006 10.6249 7.56271 10.7604 7.56271 10.9145C7.56271 11.0685 7.66006 11.204 7.80661 11.2528L8.70695 11.5531L9.00719 12.4534C9.05568 12.5996 9.19153 12.6973 9.34557 12.6973C9.49961 12.6973 9.63511 12.5996 9.6836 12.4534L9.98384 11.5527L10.8845 11.2528C11.0304 11.204 11.1284 11.0685 11.1284 10.9145C11.1284 10.7604 11.0304 10.6249 10.8845 10.5761L9.98384 10.2758L9.6836 9.37513C9.63511 9.22929 9.49961 9.13159 9.34557 9.13159M9.32704 10.6705L9.34558 10.6156L9.36377 10.6705C9.39907 10.7768 9.48286 10.8606 9.58912 10.8962L9.64403 10.9144L9.58912 10.9326C9.48286 10.9683 9.39907 11.0521 9.36377 11.1583L9.34558 11.2132L9.32704 11.1583C9.29174 11.0521 9.20794 10.9683 9.10169 10.9326L9.04677 10.9144L9.10169 10.8962C9.20794 10.8606 9.29174 10.7768 9.32704 10.6705" fill="#9AE0E6"/>
<path fill-rule="evenodd" clip-rule="evenodd" d="M12.9112 3.06982C12.5189 3.06982 12.198 3.39074 12.198 3.78297C12.198 4.1752 12.5189 4.49611 12.9112 4.49611C13.3034 4.49611 13.6243 4.1752 13.6243 3.78297C13.6243 3.39074 13.3034 3.06982 12.9112 3.06982" fill="#9AE0E6"/>
<path fill-rule="evenodd" clip-rule="evenodd" d="M35.7319 29.8706L35.7137 29.9255C35.678 30.0318 35.5942 30.1156 35.488 30.1509L35.433 30.1694L35.488 30.1876C35.5942 30.2229 35.678 30.3067 35.7137 30.413L35.7319 30.4679L35.75 30.413C35.7853 30.3067 35.8691 30.2229 35.9754 30.1876L36.0307 30.1694L35.9754 30.1509C35.8691 30.1156 35.7853 30.0318 35.75 29.9255L35.7319 29.8706" fill="#9AE0E6"/>
<path fill-rule="evenodd" clip-rule="evenodd" d="M35.7318 28.3865C35.5778 28.3865 35.4419 28.4842 35.3934 28.6301L35.0932 29.5308L34.1929 29.831C34.0467 29.8799 33.949 30.0154 33.949 30.1694C33.949 30.3234 34.0467 30.4589 34.1929 30.5074L35.0932 30.8077L35.3934 31.7084C35.4419 31.8546 35.5778 31.9523 35.7318 31.9523C35.8859 31.9523 36.0214 31.8546 36.0699 31.7084L36.3701 30.8077L37.2708 30.5074C37.4166 30.4589 37.5147 30.3234 37.5147 30.1694C37.5147 30.0154 37.4166 29.8799 37.2708 29.831L36.3701 29.5308L36.0699 28.6301C36.0214 28.4842 35.8859 28.3865 35.7318 28.3865M35.7137 29.9255L35.7318 29.8706L35.75 29.9255C35.7853 30.0318 35.8691 30.1156 35.9754 30.1509L36.0306 30.1694L35.9754 30.1876C35.8691 30.2229 35.7853 30.3067 35.75 30.4129L35.7318 30.4682L35.7137 30.4129C35.678 30.3067 35.5942 30.2229 35.4879 30.1876L35.433 30.1694L35.4879 30.1509C35.5942 30.1156 35.678 30.0318 35.7137 29.9255" fill="#9AE0E6"/>
<path fill-rule="evenodd" clip-rule="evenodd" d="M28.6003 24.4641C28.2067 24.4641 27.8872 24.7836 27.8872 25.1773C27.8872 25.5713 28.2067 25.8904 28.6003 25.8904C28.9943 25.8904 29.3135 25.5713 29.3135 25.1773C29.3135 24.7836 28.9943 24.4641 28.6003 24.4641" fill="#9AE0E6"/>
<path fill-rule="evenodd" clip-rule="evenodd" d="M35.7319 20.8986C35.3396 20.8986 35.0187 21.2195 35.0187 21.6117C35.0187 22.0039 35.3396 22.3248 35.7319 22.3248C36.1241 22.3248 36.445 22.0039 36.445 21.6117C36.445 21.2195 36.1241 20.8986 35.7319 20.8986" fill="#9AE0E6"/>
<path fill-rule="evenodd" clip-rule="evenodd" d="M7.20606 31.5956C6.81205 31.5956 6.49292 31.9148 6.49292 32.3088C6.49292 32.7024 6.81205 33.0219 7.20606 33.0219C7.59972 33.0219 7.91921 32.7024 7.91921 32.3088C7.91921 31.9148 7.59972 31.5956 7.20606 31.5956" fill="#9AE0E6"/>
<path fill-rule="evenodd" clip-rule="evenodd" d="M13.2678 26.2151C13.2578 26.2266 13.2471 26.2369 13.2361 26.2469C13.2471 26.2569 13.2578 26.2676 13.2678 26.2786C13.2778 26.2676 13.2885 26.2569 13.2995 26.2469C13.2885 26.2369 13.2778 26.2266 13.2678 26.2151" fill="#9AE0E6"/>
<path fill-rule="evenodd" clip-rule="evenodd" d="M13.2678 24.8207C13.1137 24.8207 12.9782 24.9184 12.9294 25.0643L12.7183 25.6976L12.085 25.9086C11.9392 25.9571 11.8415 26.093 11.8415 26.247C11.8415 26.4011 11.9392 26.5366 12.085 26.5851L12.7183 26.7961L12.9294 27.4294C12.9782 27.5756 13.1137 27.6733 13.2678 27.6733C13.4218 27.6733 13.5573 27.5756 13.6058 27.4294L13.8169 26.7961L14.4502 26.5851C14.5964 26.5366 14.6941 26.4011 14.6941 26.247C14.6941 26.093 14.5964 25.9571 14.4502 25.9086L13.8169 25.6976L13.6058 25.0643C13.5573 24.9184 13.4218 24.8207 13.2678 24.8207M13.2361 26.247C13.2471 26.2371 13.2578 26.2264 13.2678 26.2153C13.2778 26.2264 13.2881 26.2371 13.2995 26.247C13.2881 26.2567 13.2778 26.2674 13.2678 26.2788C13.2578 26.2674 13.2471 26.2567 13.2361 26.247" fill="#9AE0E6"/>
</svg>
